#!OML:ASF F:\VICON\USERDATA\INSTALL\rory3\rory3.ASF
:FULLY-SPECIFIED
:DEGREES
49
root -4.991323105779135 18.08359971694791 -4.010721855647913 -178.73359597214147 -8.524541312108944 -183.09413617578412
lfemur -26.284139622745332 -21.97543942440619 -12.116789965799317
ltibia 27.54675295612499
lfoot 23.874134710586453 -48.418321767012586
ltoes 49.68821349775303
rfemur 21.035969824645708 -11.88371091350004 22.83874192449476
rtibia 9.305286270021256
rfoot 35.52982911304667 -39.88763286099283
rtoes 26.30038279493898
lowerback -11.741103850143958 17.351698411975182 16.609048185383557
upperback -17.658130733773632 21.162545037969416 2.0199046970862176
thorax -9.019983810246389 8.497515121597898 -5.328480296696969
lowerneck -6.963531085182267 -23.759638698593974 -5.5251894244091355
upperneck 10.82648408070596 -33.41808853051696 6.285840779565672
head 6.005978540002301 -16.212598973693094 -0.17676893393103144
lclavicle 1.0341870712695516e-14 -5.527518240082571e-15
lhumerus 72.75148200803515 30.063497917100257 65.0721974576756
lradius 84.09706688775034
lwrist 22.433980766090862
lhand -28.76884130343759 11.911541989689498
lfingers 7.12502
lthumb -182.11995988845007 -35.40714513970593
rclavicle 1.0341870712695516e-14 -5.52751824008257e-15
rhumerus 124.31128274222647 30.058378618798145 -46.942784633891755
rradius 73.35547818065504
rwrist 16.504243954676564
rhand -38.69340583699684 23.34015235491186
rfingers 7.12502
rthumb -11.706824612895163 -5.9558904803046335
50
root -4.987740163639395 18.060132917627683 -4.117904908025779 -178.1494645249902 -9.62153989162433 -182.75458362056332
lfemur -26.831424849333338 -22.14016094404407 -11.950367865419125
ltibia 28.324534537153387
lfoot 24.72275265642773 -48.41878331280178
ltoes 50.436238974331076
rfemur 22.065562171809297 -12.107935031375103 23.15281011471731
rtibia 7.729302761640941
rfoot 38.112362059841274 -37.995172064903926
rtoes 25.706271344847867
lowerback -12.312241305603159 18.258808470647374 16.471301089237215
upperback -18.040385796145774 21.279293033114183 1.2796850468730538
thorax -8.859759877957917 8.142174782783304 -5.729292029624471
lowerneck -7.06615636578273 -23.507825648346657 -5.797520406332638
upperneck 10.932057253953321 -32.900655098956335 6.042408588146212
head 6.065079896539058 -15.988862747402043 -0.2048885073733393
lclavicle 1.0787702104835674e-14 -5.105202658481715e-15
lhumerus 74.89791930552734 32.37719497061654 64.90617298806175
lradius 86.00483556714505
lwrist 19.5634684767242
lhand -30.22508677435397 12.21926374584342
lfingers 7.12502
lthumb -183.52419799178364 -34.30017329900589
rclavicle 1.0787702104835674e-14 -5.105202658481714e-15
rhumerus 125.97726396450784 28.748862054520494 -46.454504039654296
rradius 75.99158441241354
rwrist 16.89572506108691
rhand -41.94791692347415 25.11078437866804
rfingers 7.12502
rthumb -14.846250190497955 -4.108732139126905
51
root -4.997298921476515 18.033353996096697 -4.216930021713873 -177.70014482341338 -10.516825538167538 -182.63426113359668
lfemur -27.295149387921057 -22.191506472514174 -12.117618266627701
ltibia 28.668177423135162
lfoot 25.51316450353216 -48.4159693500839
ltoes 50.63134254408288
rfemur 22.449127408501543 -12.480951724883752 23.113684414201714
rtibia 6.536163035622227
rfoot 39.91155543894669 -36.23575115058683
rtoes 24.4415416531303
lowerback -12.91730503230136 18.41447306555063 16.16865569290253
upperback -18.308840875378245 21.24640863584994 0.617976922158332
thorax -8.647544637255791 8.076395037860799 -6.102369566077529
lowerneck -7.212781163608716 -23.350026316288513 -6.07133214693148
upperneck 11.153940923809152 -32.541259885209975 5.551077004977963
head 6.162033970663082 -15.836068586094948 -0.298839498388084
lclavicle 1.0247156788278164e-14 -5.5245958849637185e-15
lhumerus 75.7895526275033 33.32445375704676 64.36045237695475
lradius 86.58534777167104
lwrist 16.554432870979408
lhand -31.405247163599633 12.159621046033383
lfingers 7.12502
lthumb -184.66215358508853 -30.64467578667093
rclavicle 1.0247156788278164e-14 -5.5245958849637185e-15
rhumerus 125.80082473723074 27.738302474411274 -46.76707638077529
rradius 77.47026623737054
rwrist 16.606084808887005
rhand -45.008818126154374 26.805931291295206
rfingers 7.12502
rthumb -17.795710511273327 -2.324455661102026
52
root -5.010503901213362 18.008727907005643 -4.2928058322015 -177.23585717113696 -11.190426363803304 -182.53953403262602
lfemur -27.62954738493442 -22.097933782951515 -12.295154745354575
ltibia 28.741801200744394
lfoot 26.471791367602307 -48.16550980039406
ltoes 51.072199981616556
rfemur 22.651579380307485 -12.817238865769037 23.07187831847811
rtibia 5.632933570038013
rfoot 40.933474100304906 -35.12022293315892
rtoes 23.638420248062847
lowerback -13.458582948987111 18.440302900923157 15.929760368272866
upperback -18.50956153389703 21.264529547001285 0.07130220624870076
thorax -8.415015683254992 8.130267639545131 -6.441561223825543
lowerneck -7.458481471753531 -23.179335399679573 -6.304729382829249
upperneck 11.528224379870515 -32.16776327586558 5.0270580874701425
head 6.301425355795708 -15.662521183242902 -0.4148612903657227
lclavicle 9.789992865874066e-15 -5.915772966322001e-15
lhumerus 75.92253801935695 33.86963150318478 63.439922394494516
lradius 86.30931345526588
lwrist 13.918993304518708
lhand -31.960862685113476 11.906171041635556
lfingers 7.12502
lthumb -185.19823739943988 -27.34417522745622
rclavicle 9.789992865874066e-15 -5.915772966322001e-15
rhumerus 124.93178738133767 27.312775409488967 -47.42529169928734
rradius 78.19914026897435
rwrist 16.185776977230994
rhand -47.36888958458759 28.32409806612972
rfingers 7.12502
rthumb -20.068919443543557 -0.7360173152181009
53
root -5.017158748917597 17.991035373693357 -4.328032314867869 -176.5911338062524 -11.601359376357955 -182.28526901565547
lfemur -27.785292327708497 -21.83914736737855 -12.322925572533638
ltibia 28.684406070937627
lfoot 27.571947991494163 -47.69575962795341
ltoes 51.957778557533224
rfemur 22.90197007091868 -13.00725521320216 23.20254239736534
rtibia 5.104163263809262
rfoot 41.33602036938197 -34.75390661544135
rtoes 24.02821587705134
lowerback -13.755127975333632 18.646963736761954 15.905314054013669
upperback -18.59217210675478 21.453437290390838 -0.30363734771315554
thorax -8.184647077009664 8.227792494548387 -6.70331655229838
lowerneck -7.823846512719267 -22.856294886195375 -6.3991722041131105
upperneck 11.932154756219258 -31.58837391672003 4.677828941570662
head 6.4458482858681485 -15.379959549385438 -0.5009907429627365
lclavicle 1.0155070815644578e-14 -5.6339185433998044e-15
lhumerus 75.79800110669703 34.525908732261016 62.1586859705874
lradius 85.71724038037829
lwrist 12.331510923800181
lhand -31.78793594610416 11.757416776525519
lfingers 7.12502
lthumb -185.03161885493617 -25.71696417418137
rclavicle 1.0155070815644578e-14 -5.6339185433998044e-15
rhumerus 124.21431062504396 27.57946016036042 -47.981651200533435
rradius 78.63358432222229
rwrist 15.887110211954635
rhand -48.69412178300757 29.44265430757823
rfingers 7.12502
rthumb -21.345057917596986 0.4303368353061625
54
root -5.016206725013545 17.98196738041301 -4.3343814371514195 -176.00448341127645 -11.820746672327111 -182.06072180752557
lfemur -27.878298104902534 -21.53549873210782 -12.275218394575033
ltibia 28.58877936613774
lfoot 28.529804400862687 -47.325548137341016
ltoes 52.80960789602504
rfemur 23.094086934487652 -13.111235190652824 23.416422914424533
rtibia 4.918949795069441
rfoot 41.35086847890129 -34.951514772164245
rtoes 25.31193112225304
lowerback -13.803613867986375 18.92410619104623 15.989004582222801
upperback -18.58127354216856 21.706586847815835 -0.5308084414492138
thorax -8.020485467780196 8.325494638771165 -6.879234053714125
lowerneck -8.28428840094347 -22.456332917048883 -6.340191417721374
upperneck 12.233917055742188 -30.941221615928306 4.520461658094502
head 6.554892835143216 -15.055337917277981 -0.5476800835422497
lclavicle 1.0873556923584719e-14 -5.031044011152639e-15
lhumerus 75.55762220287647 35.154035933900246 60.27405053499036
lradius 84.88766859850432
lwrist 11.916086527956706
lhand -31.130441540253383 11.812088162823628
lfingers 7.12502
lthumb -184.39698661344488 -24.455889453344312
rclavicle 1.0873556923584719e-14 -5.03104401115264e-15
rhumerus 123.61388526436379 28.094652438548238 -48.42004997799596
rradius 78.74403647410276
rwrist 15.292782702253277
rhand -49.201850937582634 29.969184303777148
rfingers 7.12502
rthumb -21.833519057723716 0.9822179346933559
